<?xml version="1.0" standalone="no"?>
<!DOCTYPE svg PUBLIC "-//W3C//DTD SVG 20010904//EN"
 "http://www.w3.org/TR/2001/REC-SVG-20010904/DTD/svg10.dtd">
<svg version="1.0" xmlns="http://www.w3.org/2000/svg"
 width="512.000000pt" height="512.000000pt" viewBox="0 0 512.000000 512.000000"
 preserveAspectRatio="xMidYMid meet">
<metadata>
Created by potrace 1.11, written by Peter Selinger 2001-2013
</metadata>
<g transform="translate(0.000000,512.000000) scale(0.100000,-0.100000)"
fill="#000000" stroke="none">
<path d="M418 5106 c-27 -7 -48 -12 -48 -10 0 1 -32 -13 -70 -32 -134 -65
-251 -211 -284 -354 -20 -85 -14 -217 13 -294 111 -314 462 -452 756 -297 28
14 56 31 62 38 7 6 23 20 36 30 45 36 107 120 135 183 38 85 49 139 46 232 -5
140 -55 257 -154 357 -71 71 -142 115 -224 138 -70 20 -210 25 -268 9z"/>
<path d="M2975 4885 c-334 -57 -625 -178 -925 -384 -52 -35 -97 -67 -100 -70
-3 -4 -39 -33 -80 -66 -95 -75 -276 -252 -326 -318 -21 -27 -43 -55 -49 -61
-6 -6 -36 -50 -68 -97 -114 -172 -213 -405 -257 -606 l-18 -82 1129 -1128
c699 -698 1135 -1128 1146 -1127 61 3 203 44 323 92 526 211 1029 759 1254
1364 19 54 38 110 41 125 2 16 10 44 15 63 62 200 79 596 35 798 -3 12 -7 31
-9 42 -59 263 -180 515 -354 734 -151 189 -375 386 -562 495 -219 126 -434
203 -660 236 -147 21 -380 17 -535 -10z"/>
<path d="M1114 2700 c3 -52 7 -104 10 -115 2 -11 7 -42 10 -70 11 -77 44 -190
87 -295 47 -116 57 -182 59 -372 1 -108 -19 -214 -50 -263 -18 -29 -64 -75
-165 -165 -53 -47 -265 -220 -505 -412 -315 -252 -354 -299 -354 -423 0 -59 6
-83 33 -140 57 -124 168 -249 305 -346 148 -105 295 -125 422 -57 31 17 118
119 279 328 48 63 95 123 104 132 9 9 21 23 26 30 73 92 132 165 140 174 6 6
39 44 75 84 95 106 181 190 212 206 123 64 421 67 593 5 67 -25 228 -66 290
-76 106 -16 176 -23 234 -25 36 0 68 -3 73 -6 42 -26 -118 137 -938 956 l-945
945 5 -95z"/>
</g>
</svg>
